<?xml version="1.0" encoding="utf-8"?>
<!-- Generator: Adobe Illustrator 25.0.0, SVG Export Plug-In . SVG Version: 6.00 Build 0)  -->
<svg version="1.1" id="Layer_1" xmlns="http://www.w3.org/2000/svg" xmlns:xlink="http://www.w3.org/1999/xlink" x="0px" y="0px"
	 viewBox="0 0 512 512" style="enable-background:new 0 0 512 512;" xml:space="preserve">
<style type="text/css">
	.st0{fill:#010101;}
</style>
<g>
	<g id="_x35_6-Plant_x2C__Sensor_x2C__Smart_x2C__Wifi">
		<g>
			<path class="st0" d="M61.9,184.9c6.3,0,11.4,5.1,11.4,11.3c0,6.2-5.1,11.3-11.4,11.3c-6.3,0-11.4-5.1-11.4-11.3
				C50.5,189.9,55.6,184.9,61.9,184.9z"/>
			<path class="st0" d="M403.4,163.1c6.3,0,11.4,5.1,11.4,11.3c0,6.2-5.1,11.3-11.4,11.3c-6.3,0-11.4-5.1-11.4-11.3
				C392,168.2,397.1,163.1,403.4,163.1z"/>
			<path class="st0" d="M161.4,32.6c6.3,0,11.4,5.1,11.4,11.3c0,6.2-5.1,11.3-11.4,11.3c-6.3,0-11.4-5.1-11.4-11.3
				C150,37.7,155.1,32.6,161.4,32.6z"/>
			<path class="st0" d="M447.4,347.6c6.3,0,11.4,5.1,11.4,11.3c0,6.2-5.1,11.3-11.4,11.3c-6.3,0-11.4-5.1-11.4-11.3
				C436,352.6,441.1,347.6,447.4,347.6z"/>
			<path class="st0" d="M447.4,489.4c6.3,0,11.4,5.1,11.4,11.3c0,6.2-5.1,11.3-11.4,11.3c-6.3,0-11.4-5.1-11.4-11.3
				C436,494.4,441.1,489.4,447.4,489.4z"/>
			<path class="st0" d="M106,434.6c6.3,0,11.4,5.1,11.4,11.3c0,6.2-5.1,11.3-11.4,11.3c-6.3,0-11.4-5.1-11.4-11.3
				C94.5,439.6,99.6,434.6,106,434.6z"/>
			<path class="st0" d="M194,337.1c6.3,0,11.4,5.1,11.4,11.3c0,6.2-5.1,11.3-11.4,11.3c-6.3,0-11.4-5.1-11.4-11.3
				C182.5,342.2,187.6,337.1,194,337.1z"/>
			<path class="st0" d="M73.4,304.1c6.3,0,11.4,5.1,11.4,11.3c0,6.2-5.1,11.3-11.4,11.3c-6.3,0-11.4-5.1-11.4-11.3
				C61.9,309.1,67.1,304.1,73.4,304.1z"/>
			<path class="st0" d="M418.4,108.3c0-19.1-16.7-34.8-36.1-34.8c-6.2,0-10.6,5.2-10.6,11.3s5.3,10.4,11.4,10.4
				c7,0,14.1,6.1,14.1,13.1c0,6.1,5.3,10.4,11.4,10.4C414,119.6,418.4,114.4,418.4,108.3z"/>
			<path class="st0" d="M444.8,118.8c6.2,0,10.6-5.2,10.6-11.3c-0.9-39.2-33.4-71.3-73.9-70.5c-6.2,0-10.6,5.2-10.6,11.3
				s5.3,10.4,11.4,10.4c27.3-0.9,51,21.8,51,48.7C433.3,114.4,438.6,118.8,444.8,118.8z"/>
			<path class="st0" d="M380.5,1.3c-6.2,0-10.6,5.2-10.6,11.3c0,6.1,5.3,10.4,11.4,10.4c48.4-0.9,88,37.4,88.9,85.3
				c0,6.1,5.3,10.4,11.4,10.4c6.2,0,10.6-5.2,10.6-11.3C491.4,47.4,441.3-0.4,380.5,1.3z"/>
			<path class="st0" d="M51.4,358.9c-18.5,0-33.4,14.8-33.4,33.1c0,18.3,15,33.1,33.4,33.1c18.5,0,33.4-14.8,33.4-33.1
				C84.8,373.7,69,358.9,51.4,358.9z M51.4,402.4c-6.2,0-11.4-5.2-11.4-11.3s5.3-11.3,11.4-11.3s11.4,5.2,11.4,11.3
				C61.9,397.2,56.7,402.4,51.4,402.4z"/>
			<path class="st0" d="M452.7,217.9c-15,0-27.3,12.2-27.3,27c0,14.8,12.3,27,27.3,27c15,0,27.3-12.2,27.3-27
				C480,230.1,467.7,217.9,452.7,217.9z M452.7,250.1c-2.6,0-5.3-2.6-5.3-5.2c0-2.6,2.6-5.2,5.3-5.2c2.6,0,5.3,2.6,5.3,5.2
				C458,247.5,455.4,250.1,452.7,250.1z"/>
			<path class="st0" d="M78.7,130.9c21.1,0,38.7-17.4,38.7-38.3c0-20.9-17.6-38.3-38.7-38.3S39.9,71.8,39.9,92.7
				C39.9,113.5,57.5,130.9,78.7,130.9z M78.7,76.1c8.8,0,16.7,7,16.7,16.5c0,9.6-7,16.5-16.7,16.5c-9.7,0-16.7-7-16.7-16.5
				C61.9,83.1,69,76.1,78.7,76.1z"/>
			<path class="st0" d="M414,478.9H313.7c-1.8-7.8-5.3-15.7-9.7-21.8c30.8-0.9,56.3-24.4,58.1-54.8l7-88.7
				c13.2-4.4,22.9-16.5,22.9-31.3c0-18.3-15-33.1-33.4-33.1h-93.3v-33.1c55.4,6.1,95.9-36.5,87.1-94c-0.9-4.4-3.5-7.8-7.9-8.7
				c-28.2-7-58.1-1.7-78.3,18.3v-9.6c45.8-33.1,44-89.6-5.3-120.9c-3.5-2.6-7.9-2.6-11.4,0c-49.3,30.5-51,87.9-5.3,120.9v9.6
				c-21.1-20-50.2-24.4-78.3-18.3c-4.4,0.9-7.9,4.4-7.9,8.7c-9.7,56.6,30.8,100.1,86.3,94v33.9H150c-18.5,0-33.4,14.8-33.4,33.1
				c0,14.8,9.7,27,22.9,31.3l7,88.7c2.6,30.5,28.2,53.9,58.1,54.8c-4.4,6.1-7.9,13.9-9.7,21.8h-12.3c-6.2,0-11.4,5.2-11.4,11.3
				s5.3,11.3,11.4,11.3c13.2,0,219.1,0,231.5,0c6.2,0,11.4-5.2,11.4-11.3C425.4,483.3,420.1,478.9,414,478.9z M331.3,134.4
				c2.6,33.9-17.6,59.2-51,61.8l23.8-20.9c4.4-4.4,4.4-11.3,0.9-15.7c-3.5-4.4-11.4-4.4-15.8-0.9l-23.8,20.9V177
				C271.4,146.6,297.8,129.2,331.3,134.4z M254.7,23.9c29,22.6,29,56.6,0,79.2C224.8,81.3,224.8,46.5,254.7,23.9z M177.2,134.4
				c33.4-5.2,59.8,12.2,66,43.5v2.6l-23.8-20.9c-4.4-4.4-11.4-3.5-15.8,0.9c-4.4,4.4-3.5,11.3,0.9,15.7l23.8,20.9
				c-13.2-0.9-24.6-5.2-34.3-13.9C182.5,171,176.4,153.6,177.2,134.4z M150,271.9h209.5c6.2,0,11.4,5.2,11.4,11.3
				s-6.2,10.4-11.4,10.4H150c-6.2,0-11.4-5.2-11.4-11.3S143.8,271.9,150,271.9z M168.4,400.6l-7-85.3h185.7l-1.8,21.8H227.4
				c-6.2,0-11.4,5.2-11.4,11.3s5.3,11.3,11.4,11.3h117.1l-3.5,41.8c-1.8,19.1-17.6,34.8-37.8,34.8c-19.4,0-76.6,0-96.8,0
				C186.9,435.4,170.2,419.8,168.4,400.6z M217.7,478.9c4.4-13.1,16.7-21.8,30.8-21.8H260c14.1,0,26.4,8.7,30.8,21.8H217.7z"/>
		</g>
	</g>
	<g id="Layer_1_00000144305190196576098630000011653386257666045062_">
	</g>
</g>
</svg>
