<?xml version="1.0" encoding="utf-8"?>
<!-- Generator: Adobe Illustrator 25.0.0, SVG Export Plug-In . SVG Version: 6.00 Build 0)  -->
<svg version="1.1" id="Layer_1" xmlns="http://www.w3.org/2000/svg" xmlns:xlink="http://www.w3.org/1999/xlink" x="0px" y="0px"
	 viewBox="0 0 512 512" style="enable-background:new 0 0 512 512;" xml:space="preserve">
<style type="text/css">
	.st0{fill:#010101;}
</style>
<g>
	<g id="_x35_4-App_x2C__Globe_x2C__Mobile_x2C__Phone">
		<g>
			<path class="st0" d="M367.1,17.6H144c-26.2,0-47.6,21.1-47.6,47v393.2c0,25.9,21.3,47,47.6,47h223.9c26.2,0,47.6-21.1,47.6-47
				V64.6C414.6,38.6,393.3,17.6,367.1,17.6z M353.1,362.1c-5.7,0-10.7,4.9-10.7,10.5v50.3H189.1v-30.8c0-5.7-4.9-10.5-10.7-10.5
				c-5.7,0-10.7,4.9-10.7,10.5v30.8h-9.8v-60.8c0-5.7-4.9-10.5-10.7-10.5c-5.7,0-10.7,4.9-10.7,10.5v60.8h-19.7V98.6h31.2v60.8
				c0,5.7,4.9,10.5,10.7,10.5c5.7,0,10.7-4.9,10.7-10.5V98.6h225.5v324.3h-32v-51.1C363,367,358,362.1,353.1,362.1z M144,37.8h223.9
				c14.8,0,27.1,12.2,27.1,26.8v14.6h-278V64.6C116.9,50,129.2,37.8,144,37.8z M367.1,483.7H144c-14.8,0-27.1-12.2-27.1-26.8v-14.6
				h277.2V457C394.1,471.6,381.8,483.7,367.1,483.7z"/>
			<path class="st0" d="M239.9,68.6h31.2c5.7,0,10.7-4.9,10.7-10.5s-4.9-10.5-10.7-10.5h-31.2c-5.7,0-10.7,4.9-10.7,10.5
				S234.2,68.6,239.9,68.6z"/>
			<path class="st0" d="M271.1,453.7h-31.2c-5.7,0-10.7,4.9-10.7,10.5c0,5.7,4.9,10.5,10.7,10.5h31.2c5.7,0,10.7-4.9,10.7-10.5
				C280.9,457.8,276,453.7,271.1,453.7z"/>
			<path class="st0" d="M148.1,321.6c5.9,0,10.7,4.7,10.7,10.5c0,5.8-4.8,10.5-10.7,10.5c-5.9,0-10.7-4.7-10.7-10.5
				C137.4,326.3,142.2,321.6,148.1,321.6z"/>
			<path class="st0" d="M353.1,108.4c5.9,0,10.7,4.7,10.7,10.5c0,5.8-4.8,10.5-10.7,10.5c-5.9,0-10.7-4.7-10.7-10.5
				C342.4,113.1,347.2,108.4,353.1,108.4z"/>
			<path class="st0" d="M353.1,139.2c5.9,0,10.7,4.7,10.7,10.5c0,5.8-4.8,10.5-10.7,10.5c-5.9,0-10.7-4.7-10.7-10.5
				C342.4,143.9,347.2,139.2,353.1,139.2z"/>
		</g>
	</g>
	<g id="Layer_1_00000163068640142952543390000002426208528272549284_">
	</g>
</g>
</svg>
