<?xml version="1.0" encoding="utf-8"?>
<!-- Generator: Adobe Illustrator 25.0.0, SVG Export Plug-In . SVG Version: 6.00 Build 0)  -->
<svg version="1.1" id="Layer_1" xmlns="http://www.w3.org/2000/svg" xmlns:xlink="http://www.w3.org/1999/xlink" x="0px" y="0px"
	 viewBox="0 0 512 512" style="enable-background:new 0 0 512 512;" xml:space="preserve">
<style type="text/css">
	.st0{fill:#010101;}
</style>
<g>
	<g id="_x33_30_x2C__Internet_x2C__Protection_x2C__Safety_x2C__Security_x2C__Shield">
		<g id="XMLID_4523_">
			<g id="XMLID_4524_">
				<path class="st0" d="M309,512H203.1c-2.8,0-6.5-0.9-8.4-3.7c-9.3-9.3-18.6-18.6-26.9-26.9c-65-65.9-97.5-98.4-114.2-148.6
					C37.9,284.5,37.9,221.4,37.9,97c0-13.9,0-28.8,0-44.6c0-3.7,1.9-6.5,4.6-9.3c2.8-1.9,6.5-2.8,9.3-2.8c72.4,13,138.3,0,197.8-39
					c4.6-2.8,10.2-2.8,13.9,0.9C309,40.3,373,52.4,460.3,40.3c3.7-0.9,6.5,0.9,9.3,2.8c2.8,1.9,3.7,5.6,3.7,8.4
					c0,21.4,0,40.9,0,60.3c0,116.1,0.9,174.5-14.9,220c-15.8,46.4-45.5,77.1-104.9,138.3c-11.1,11.1-23.2,24.1-36.2,38.1
					C315.5,511.1,312.7,512,309,512z M208.7,488.8h95.6c12.1-12.1,23.2-24.1,33.4-34.4c57.6-59.4,86.4-88.2,99.3-130
					C451,282.7,451,225.1,451,111.8c0-14.9,0-30.6,0-47.3c-39,4.6-75.2,3.7-105.8-1.9c-34.4-6.5-64.1-19.5-89.1-38.1
					c-46.4,28.8-96.6,43.6-149.5,43.6c-14.9,0-29.7-0.9-44.6-2.8c0,11.1,0,21.4,0,31.6c0,122.6,0,183.8,14.8,229.3
					c14.9,44.6,46.4,76.1,108.6,139.3C192,472.1,200.3,480.4,208.7,488.8z"/>
			</g>
			<g id="XMLID_4525_">
				<path class="st0" d="M296,442.4h-81.7c-2.8,0-6.5-0.9-8.4-3.7c-3.7-3.7-7.4-7.4-10.2-10.2C98.2,329.1,97.3,326.3,98.2,161
					c0-14.9,0-32.5,0-51.1c0-3.7,1.9-6.5,4.6-9.3c2.8-1.9,6.5-2.8,9.3-2.8c50.1,9.3,96.6,0,138.3-26.9c4.6-2.8,10.2-2.8,13.9,0.9
					c31.6,26,76.1,35.3,137.4,26c3.7-0.9,6.5,0.9,9.3,2.8c2.8,1.9,3.7,5.6,3.7,8.4c0,18.6,0,35.3,0,50.1
					c0.9,162.5,0,165.3-89.1,257.2c-6.5,6.5-13.9,13.9-21.3,22.3C301.5,441.4,298.8,442.4,296,442.4z M218.9,419.2h71.5
					c6.5-6.5,12.1-13,17.6-18.6c41.8-43.6,63.1-65,72.4-93.8c10.2-29.7,10.2-68.7,9.3-146.7c0-11.1,0-23.2,0-37.1
					c-57.6,6.5-102.1-2.8-135.6-27.9c-40.8,25.1-86.3,34.3-134.6,27.9c0,13.9,0,26,0,38.1c0,79.8-0.9,119.8,10.2,150.4
					c11.1,29.7,34.4,53.9,80.8,101.2C214.3,414.5,217.1,416.4,218.9,419.2z"/>
			</g>
			<g id="XMLID_4526_">
				<path class="st0" d="M492.8,512H17.4c-6.5,0-12.1-5.6-12.1-12.1c0-6.5,5.6-12.1,12.1-12.1h475.4c6.5,0,12.1,5.6,12.1,12.1
					C504.9,506.4,499.3,512,492.8,512z"/>
			</g>
			<g id="XMLID_4527_">
				<path class="st0" d="M435.2,465.6h-81.7c-6.5,0-12.1-5.6-12.1-12.1c0-6.5,5.6-12.1,12.1-12.1h81.7c6.5,0,12.1,5.6,12.1,12.1
					C446.4,460,440.8,465.6,435.2,465.6z"/>
			</g>
			<g id="XMLID_4528_">
				<path class="st0" d="M156.7,465.6H75c-6.5,0-12.1-5.6-12.1-12.1c0-6.5,5.6-12.1,12.1-12.1h81.7c6.5,0,12.1,5.6,12.1,12.1
					C167.9,460,162.3,465.6,156.7,465.6z"/>
			</g>
			<g id="XMLID_4529_">
				<path class="st0" d="M256.1,431.2c-6.5,0-12.1-5.6-12.1-12.1V80.3c0-6.5,5.6-12.1,12.1-12.1c6.5,0,12.1,5.6,12.1,12.1v338.9
					C268.1,425.7,262.6,431.2,256.1,431.2z"/>
			</g>
			<g id="XMLID_4530_">
				<path class="st0" d="M400,256.7H110.3c-6.5,0-12.1-5.6-12.1-12.1c0-6.5,5.6-12.1,12.1-12.1H400c6.5,0,12.1,5.6,12.1,12.1
					C412,251.1,406.5,256.7,400,256.7z"/>
			</g>
		</g>
	</g>
	<g id="Layer_1_00000020370862480871042580000012632990851955761314_">
	</g>
</g>
</svg>
