<?xml version="1.0" encoding="utf-8"?>
<!-- Generator: Adobe Illustrator 25.0.0, SVG Export Plug-In . SVG Version: 6.00 Build 0)  -->
<svg version="1.1" id="Layer_1" xmlns="http://www.w3.org/2000/svg" xmlns:xlink="http://www.w3.org/1999/xlink" x="0px" y="0px"
	 viewBox="0 0 512 512" style="enable-background:new 0 0 512 512;" xml:space="preserve">
<style type="text/css">
	.st0{fill:#010101;}
</style>
<g>
	<g id="_x33_37_x2C__World_x2C__Globe_x2C__Internet_x2C__Security">
		<g id="XMLID_4453_">
			<g id="XMLID_4454_">
				<path class="st0" d="M255.1,512c-68,0-133.3-27-180.8-75.5C25.8,388.9-1.2,323.7-1.2,255.6c0-68.1,27-133.3,75.5-180.9
					C122.7,26.3,187.1-0.7,255.1-0.7c68.1,0,133.3,27,180.9,75.5c48.5,48.5,75.5,112.8,75.5,180.9c0,68.1-27,133.3-75.5,180.9
					C387.5,484,323.2,512,255.1,512z M255.1,22.6C126.5,22.6,22.1,127,22.1,255.6c0,128.6,104.4,233.1,233.1,233.1
					c128.7,0,233.1-104.4,233.1-233.1C488.2,127,383.8,22.6,255.1,22.6z"/>
			</g>
			<g id="XMLID_4455_">
				<path class="st0" d="M255.1,512c-37.3,0-70.8-28-96-78.3c-23.3-47.5-36.4-110.9-36.4-178.1c0-67.1,13.1-130.5,36.4-178.1
					c25.2-50.3,58.7-78.3,96-78.3c37.3,0,70.9,28,96,78.3c23.3,47.5,36.4,110.9,36.4,178.1c0,67.1-13.1,130.5-36.4,178.1
					C326,484,292.4,512,255.1,512z M255.1,22.6c-59.7,0-110,106.3-110,233.1c0,126.8,50.3,233.1,110,233.1
					c59.7,0,110-106.3,110-233.1C365.1,128.9,314.8,22.6,255.1,22.6z"/>
			</g>
			<g id="XMLID_4456_">
				<path class="st0" d="M388.4,120.5H120c-6.5,0-12.1-5.6-12.1-12.1c0-6.5,5.6-12.1,12.1-12.1h268.5c6.5,0,12.1,5.6,12.1,12.1
					C400.6,114.9,394,120.5,388.4,120.5z"/>
			</g>
			<g id="XMLID_4457_">
				<path class="st0" d="M492.8,213.7H26.7c-6.5,0-12.1-5.6-12.1-12.1c0-6.5,5.6-12.1,12.1-12.1h466.1c6.5,0,12.1,5.6,12.1,12.1
					C505,208.1,499.4,213.7,492.8,213.7z"/>
			</g>
			<g>
				<path class="st0" d="M388.4,412.3H120c-6.5,0-12.1-5.6-12.1-12.1c0-6.5,5.6-12.1,12.1-12.1h268.5c6.5,0,12.1,5.6,12.1,12.1
					C399.6,406.7,394,412.3,388.4,412.3z"/>
			</g>
			<g>
				<path class="st0" d="M492.8,319H26.7c-6.5,0-12.1-5.6-12.1-12.1c0-6.5,5.6-12.1,12.1-12.1h466.1c6.5,0,12.1,5.6,12.1,12.1
					C505,313.4,499.4,319,492.8,319z"/>
			</g>
			<g id="XMLID_4458_">
				<path class="st0" d="M255.1,512c-6.5,0-12.1-5.6-12.1-12.1V11.4c0-6.5,5.6-12.1,12.1-12.1c6.5,0,12.1,5.6,12.1,12.1v489.4
					C267.2,506.4,261.7,512,255.1,512z"/>
			</g>
		</g>
	</g>
	<g id="Layer_1_00000120524368394234957500000004560996709733931433_">
	</g>
</g>
</svg>
